<?xml version="1.0" encoding="UTF-8" standalone="no" ?>
<!DOCTYPE svg PUBLIC "-//W3C//DTD SVG 1.1//EN" "http://www.w3.org/Graphics/SVG/1.1/DTD/svg11.dtd">
<svg xmlns="http://www.w3.org/2000/svg" xmlns:xlink="http://www.w3.org/1999/xlink" version="1.1" width="1080" height="1080" viewBox="0 0 1080 1080" xml:space="preserve">
<desc>Created with Fabric.js 5.2.4</desc>
<defs>
</defs>
<g transform="matrix(1 0 0 1 540 540)" id="81ba2e40-690d-4285-be84-4aaa680b8d2f"  >
<rect style="stroke: none; stroke-width: 1; stroke-dasharray: none; stroke-linecap: butt; stroke-dashoffset: 0; stroke-linejoin: miter; stroke-miterlimit: 4; fill: rgb(255,255,255); fill-rule: nonzero; opacity: 1; visibility: hidden;" vector-effect="non-scaling-stroke"  x="-540" y="-540" rx="0" ry="0" width="1080" height="1080" />
</g>
<g transform="matrix(1 0 0 1 540 540)" id="35b6e653-32b2-4e91-88b7-92ac4f82e6d7"  >
</g>
<g transform="matrix(1 0 0 1 540 540)"  >
<g style="" vector-effect="non-scaling-stroke"   >
		<g transform="matrix(12.5 0 0 12.5 0 -49.29)"  >
<path style="stroke: none; stroke-width: 1; stroke-dasharray: none; stroke-linecap: butt; stroke-dashoffset: 0; stroke-linejoin: miter; stroke-miterlimit: 4; fill: rgb(187,225,250); fill-rule: nonzero; opacity: 1;" vector-effect="non-scaling-stroke"  transform=" translate(-32, -28.06)" d="M 58.3496017 4.1445498 L 5.6494002 4.1445498 C 2.5342 4.1445498 0 6.6786499 0 9.7939501 L 0 46.3202524 C 0 49.435551600000004 2.5342 51.9696512 5.6494002 51.9696512 L 23.7626986 51.9696512 C 24.3154997 51.9696512 24.7626986 51.522450400000004 24.7626986 50.9696512 C 24.7626986 50.4169512 24.3154997 49.9696512 23.7626986 49.9696512 L 5.6494002 49.9696512 C 3.6368001 49.9696503 2 48.3329506 2 46.3202515 L 2 9.7939501 C 2 7.78125 3.6368001 6.1445498 5.6494002 6.1445498 L 58.3496031 6.1445498 C 60.3623009 6.1445498 62 7.78125 62 9.7939501 L 62 46.3202524 C 62 48.3329515 60.3623009 49.9696512 58.3496017 49.9696512 C 57.7969017 49.9696512 57.3496017 50.4169512 57.3496017 50.9696512 C 57.3496017 51.522450400000004 57.7969017 51.9696512 58.3496017 51.9696512 C 61.464901 51.9696503 64 49.4355507 64 46.3202515 L 64 9.7939501 C 64 6.6786499 61.464901 4.1445498 58.3496017 4.1445498 z" stroke-linecap="round" />
</g>
		<g transform="matrix(12.5 0 0 12.5 -200 14.31)"  >
<path style="stroke: none; stroke-width: 1; stroke-dasharray: none; stroke-linecap: butt; stroke-dashoffset: 0; stroke-linejoin: miter; stroke-miterlimit: 4; fill: rgb(187,225,250); fill-rule: nonzero; opacity: 1;" vector-effect="non-scaling-stroke"  transform=" translate(-16, -33.14)" d="M 22 32.1445503 L 10 32.1445503 C 9.4473 32.1445503 9 32.591751099999996 9 33.1445503 C 9 33.6972503 9.4473 34.1445503 10 34.1445503 L 22 34.1445503 C 22.5527992 34.1445503 23 33.6972503 23 33.1445503 C 23 32.5917511 22.5527992 32.1445503 22 32.1445503 z" stroke-linecap="round" />
</g>
		<g transform="matrix(12.5 0 0 12.5 -200 96.18)"  >
<path style="stroke: none; stroke-width: 1; stroke-dasharray: none; stroke-linecap: butt; stroke-dashoffset: 0; stroke-linejoin: miter; stroke-miterlimit: 4; fill: rgb(187,225,250); fill-rule: nonzero; opacity: 1;" vector-effect="non-scaling-stroke"  transform=" translate(-16, -39.69)" d="M 22 38.6943512 L 10 38.6943512 C 9.4473 38.6943512 9 39.1415482 9 39.6943512 C 9 40.2470512 9.4473 40.6943512 10 40.6943512 L 22 40.6943512 C 22.5527992 40.6943512 23 40.2470512 23 39.6943512 C 23 39.1415482 22.5527992 38.6943512 22 38.6943512 z" stroke-linecap="round" />
</g>
		<g transform="matrix(12.5 0 0 12.5 124.51 100)"  >
<path style="stroke: none; stroke-width: 1; stroke-dasharray: none; stroke-linecap: butt; stroke-dashoffset: 0; stroke-linejoin: miter; stroke-miterlimit: 4; fill: rgb(187,225,250); fill-rule: nonzero; opacity: 1;" vector-effect="non-scaling-stroke"  transform=" translate(-41.96, -40)" d="M 51.7373009 42.0009499 C 51.7188988 41.9379502 51.6786995 41.890049000000005 51.6497002 41.8338509 C 53.7256012 39.5299492 55 36.4897499 55 33.1445503 C 55 25.9648494 49.1796989 20.1445503 42 20.1445503 C 34.8203011 20.1445503 29 25.9648494 29 33.1445503 C 29 36.4529495 30.2462006 39.4632492 32.2815018 41.7579498 C 32.2605019 41.8034515 32.2272988 41.8400497 32.2128983 41.8896484 L 28.005899499999998 56.3134498 C 27.8955003 56.6923484 28.0175992 57.0995483 28.3174 57.3554496 C 28.6172009 57.6112518 29.0391007 57.6650504 29.3945999 57.4970512 L 33.8106003 55.3993492 L 36.5849991 59.4228515 C 36.773498599999996 59.6962509 37.0830002 59.8554496 37.4081993 59.8554496 C 37.464901 59.8554496 37.5214996 59.8505515 37.578201299999996 59.8407516 C 37.9628983 59.774349199999996 38.273498499999995 59.491149899999996 38.374099699999995 59.1142501 L 41.850898699999995 46.1369514 C 41.9011002 46.1375504 41.9496994 46.1445503 42 46.1445503 C 42.0237999 46.1445503 42.0467987 46.141048399999995 42.0705986 46.1409492 L 45.5479012 59.1142501 C 45.648498599999996 59.4902496 45.9580002 59.7734489 46.3418007 59.8407516 C 46.3993988 59.850551599999996 46.4570999 59.8554496 46.5136986 59.8554496 C 46.8378983 59.8554496 47.1455002 59.6982497 47.3349991 59.4267501 L 50.1181984 55.4228515 L 54.52930069999999 57.4989509 C 54.88380049999999 57.6650504 55.30469899999999 57.6093482 55.60549929999999 57.353450699999996 C 55.90430069999999 57.0976485 56.02539829999999 56.691348999999995 55.91510009999999 56.313449799999994 L 51.7373009 42.0009499 z M 42 22.1445503 C 48.0654984 22.1445503 53 27.07905 53 33.1445503 C 53 39.2099495 48.0654984 44.1445503 42 44.1445503 C 35.9346008 44.1445503 31 39.2099495 31 33.1445503 C 31 27.0790501 35.9346008 22.1445503 42 22.1445503 z M 37.0029984 56.5058517 L 34.973701500000004 53.5634498 C 34.6953011 53.1601486 34.166999800000006 53.0155486 33.721698800000006 53.2275504 L 30.549800900000005 54.7343482 L 33.887100200000006 43.2927512 C 35.575000700000004 44.6439513 37.607101400000005 45.574748899999996 39.83089830000001 45.949149999999996 L 37.0029984 56.5058517 z M 50.205101 53.2529488 C 49.7626991 53.0478516 49.236400599999996 53.186451 48.9580002 53.5868493 L 46.9219017 56.516548199999995 L 44.092701 45.9608498 C 46.3174019 45.5998497 48.3513985 44.6815491 50.0456009 43.3432503 L 53.3731003 54.7441483 L 50.205101 53.2529488 z" stroke-linecap="round" />
</g>
		<g transform="matrix(12.5 0 0 12.5 -200 -148.19)"  >
<path style="stroke: none; stroke-width: 1; stroke-dasharray: none; stroke-linecap: butt; stroke-dashoffset: 0; stroke-linejoin: miter; stroke-miterlimit: 4; fill: rgb(187,225,250); fill-rule: nonzero; opacity: 1;" vector-effect="non-scaling-stroke"  transform=" translate(-16, -20.14)" d="M 23 15.1445503 C 23 14.039950300000001 22.1046009 13.1445503 21 13.1445503 L 11 13.1445503 C 9.8955002 13.1445503 9 14.039950300000001 9 15.1445503 L 9 25.1445503 C 9 26.249050099999998 9.8955002 27.1445503 11 27.1445503 L 21 27.1445503 C 22.1046009 27.1445503 23 26.249050099999998 23 25.1445503 L 23 15.1445503 z M 21 25.1445503 L 11 25.1445503 L 11 15.144550299999999 L 21 15.144550299999999 L 21 25.1445503 z" stroke-linecap="round" />
</g>
		<g transform="matrix(12.5 0 0 12.5 125 14.31)"  >
<path style="stroke: none; stroke-width: 1; stroke-dasharray: none; stroke-linecap: butt; stroke-dashoffset: 0; stroke-linejoin: miter; stroke-miterlimit: 4; fill: rgb(187,225,250); fill-rule: nonzero; opacity: 1;" vector-effect="non-scaling-stroke"  transform=" translate(-42, -33.14)" d="M 42 39.1445503 C 45.3138008 39.1445503 48 36.4582481 48 33.1445503 C 48 29.8307495 45.3138008 27.1445503 42 27.1445503 C 38.6862984 27.1445503 36 29.8307495 36 33.1445503 C 36 36.4582481 38.6862984 39.1445503 42 39.1445503 z M 42 29.1445503 C 44.2056999 29.1445503 46 30.9388504 46 33.1445503 C 46 35.350151 44.2056999 37.1445503 42 37.1445503 C 39.7943993 37.1445503 38 35.350151 38 33.1445503 C 38 30.9388504 39.7943993 29.1445503 42 29.1445503 z" stroke-linecap="round" />
</g>
</g>
</g>
<g transform="matrix(NaN NaN NaN NaN 0 0)"  >
<g style=""   >
</g>
</g>
<g transform="matrix(NaN NaN NaN NaN 0 0)"  >
<g style=""   >
</g>
</g>
</svg>